<?xml version="1.0" encoding="UTF-8"?>
<svg xmlns="http://www.w3.org/2000/svg" width="170" height="32" viewBox="0 0 170 32" fill="none">
  <path d="M0.00433978 13.6844H11.1142V31.9243H0.00433978V13.6844Z" fill="url(#paint0_linear_290_359)"></path>
  <path d="M28.8901 18.2444H40V9.12441L32.2231 0.00445313H28.8901V18.2444Z" fill="url(#paint1_linear_290_359)"></path>
  <path d="M0 0L12.3007 1.92185e-07L39.9957 28.418V32L27.7748 32L0 3.50014V0Z" fill="url(#paint2_linear_290_359)"></path>
  <path d="M160.243 14.9263H168.321V16.8257H160.243V14.9263ZM160.445 21.876H169.6V23.8202H158.201V8.1777H169.286V10.1218H160.445V21.876Z" fill="#F5F5F5"></path>
  <path d="M141.898 23.8202V8.1777H148.023C149.4 8.1777 150.574 8.39371 151.546 8.82575C152.519 9.25777 153.267 9.88347 153.79 10.7028C154.314 11.5222 154.576 12.498 154.576 13.6302C154.576 14.7624 154.314 15.7382 153.79 16.5576C153.267 17.3621 152.519 17.9803 151.546 18.4123C150.574 18.8444 149.4 19.0604 148.023 19.0604H143.132L144.142 18.0324V23.8202H141.898ZM152.399 23.8202L148.405 18.1442H150.806L154.845 23.8202H152.399ZM144.142 18.2559L143.132 17.1609H147.956C149.392 17.1609 150.477 16.8555 151.21 16.2447C151.958 15.619 152.332 14.7475 152.332 13.6302C152.332 12.5129 151.958 11.6488 151.21 11.038C150.477 10.4272 149.392 10.1218 147.956 10.1218H143.132L144.142 9.00452V18.2559Z" fill="#F5F5F5"></path>
  <path d="M130.142 24C128.945 24 127.831 23.7989 126.798 23.3966C125.781 22.9944 124.899 22.4358 124.151 21.7207C123.403 20.9907 122.819 20.1415 122.4 19.1732C121.981 18.2048 121.772 17.1471 121.772 16C121.772 14.8529 121.981 13.7952 122.4 12.8268C122.819 11.8585 123.403 11.0168 124.151 10.3017C124.899 9.57169 125.781 9.00559 126.798 8.60335C127.816 8.20112 128.93 8 130.142 8C131.339 8 132.438 8.20112 133.44 8.60335C134.458 8.99069 135.34 9.54935 136.088 10.2793C136.851 10.9944 137.434 11.8361 137.838 12.8045C138.257 13.7728 138.467 14.838 138.467 16C138.467 17.162 138.257 18.2272 137.838 19.1955C137.434 20.1639 136.851 21.013 136.088 21.743C135.34 22.4581 134.458 23.0168 133.44 23.419C132.438 23.8063 131.339 24 130.142 24ZM130.142 22.0112C131.009 22.0112 131.81 21.8622 132.543 21.5642C133.291 21.2663 133.934 20.8492 134.473 20.3128C135.026 19.7616 135.452 19.121 135.752 18.3911C136.066 17.6611 136.223 16.8641 136.223 16C136.223 15.1359 136.066 14.3389 135.752 13.6089C135.452 12.879 135.026 12.2458 134.473 11.7095C133.934 11.1583 133.291 10.7337 132.543 10.4358C131.81 10.1378 131.009 9.98883 130.142 9.98883C129.259 9.98883 128.444 10.1378 127.696 10.4358C126.963 10.7337 126.32 11.1583 125.766 11.7095C125.213 12.2458 124.779 12.879 124.465 13.6089C124.166 14.3389 124.016 15.1359 124.016 16C124.016 16.8641 124.166 17.6611 124.465 18.3911C124.779 19.121 125.213 19.7616 125.766 20.3128C126.32 20.8492 126.963 21.2663 127.696 21.5642C128.444 21.8622 129.259 22.0112 130.142 22.0112Z" fill="#F5F5F5"></path>
  <path d="M114.187 24C112.991 24 111.884 23.8063 110.866 23.419C109.864 23.0168 108.989 22.4581 108.241 21.743C107.508 21.013 106.932 20.1639 106.513 19.1955C106.094 18.2272 105.885 17.162 105.885 16C105.885 14.838 106.094 13.7728 106.513 12.8045C106.932 11.8361 107.516 10.9944 108.264 10.2793C109.012 9.54935 109.887 8.99069 110.889 8.60335C111.906 8.20112 113.013 8 114.21 8C115.422 8 116.536 8.20856 117.553 8.6257C118.586 9.02793 119.461 9.63128 120.179 10.4358L118.72 11.8436C118.122 11.2179 117.449 10.7561 116.701 10.4581C115.953 10.1453 115.152 9.98883 114.3 9.98883C113.417 9.98883 112.594 10.1378 111.831 10.4358C111.083 10.7337 110.433 11.1508 109.879 11.6872C109.326 12.2235 108.892 12.8641 108.578 13.6089C108.279 14.3389 108.129 15.1359 108.129 16C108.129 16.8641 108.279 17.6685 108.578 18.4134C108.892 19.1434 109.326 19.7765 109.879 20.3128C110.433 20.8492 111.083 21.2663 111.831 21.5642C112.594 21.8622 113.417 22.0112 114.3 22.0112C115.152 22.0112 115.953 21.8622 116.701 21.5642C117.449 21.2514 118.122 20.7747 118.72 20.1341L120.179 21.5419C119.461 22.3464 118.586 22.9572 117.553 23.3743C116.536 23.7914 115.414 24 114.187 24Z" fill="#F5F5F5"></path>
  <path d="M100.219 23.8202V8.1777H102.463V23.8202H100.219Z" fill="#F5F5F5"></path>
  <path d="M89.105 23.8202L82.1938 8.1777H84.6172L90.9675 22.6135H89.5763L95.9714 8.1777H98.2153L91.3265 23.8202H89.105Z" fill="#F5F5F5"></path>
  <path d="M73.2992 24C72.1024 24 70.988 23.7989 69.9558 23.3966C68.9385 22.9944 68.0559 22.4358 67.308 21.7207C66.56 20.9907 65.9766 20.1415 65.5577 19.1732C65.1389 18.2048 64.9294 17.1471 64.9294 16C64.9294 14.8529 65.1389 13.7952 65.5577 12.8268C65.9766 11.8585 66.56 11.0168 67.308 10.3017C68.0559 9.57169 68.9385 9.00559 69.9558 8.60335C70.973 8.20112 72.0875 8 73.2992 8C74.4959 8 75.5954 8.20112 76.5977 8.60335C77.615 8.99069 78.4976 9.54935 79.2455 10.2793C80.0085 10.9944 80.5919 11.8361 80.9958 12.8045C81.4146 13.7728 81.6241 14.838 81.6241 16C81.6241 17.162 81.4146 18.2272 80.9958 19.1955C80.5919 20.1639 80.0085 21.013 79.2455 21.743C78.4976 22.4581 77.615 23.0168 76.5977 23.419C75.5954 23.8063 74.4959 24 73.2992 24ZM73.2992 22.0112C74.1668 22.0112 74.9672 21.8622 75.7002 21.5642C76.4481 21.2663 77.0914 20.8492 77.6299 20.3128C78.1834 19.7616 78.6098 19.121 78.9089 18.3911C79.2231 17.6611 79.3802 16.8641 79.3802 16C79.3802 15.1359 79.2231 14.3389 78.9089 13.6089C78.6098 12.879 78.1834 12.2458 77.6299 11.7095C77.0914 11.1583 76.4481 10.7337 75.7002 10.4358C74.9672 10.1378 74.1668 9.98883 73.2992 9.98883C72.4166 9.98883 71.6013 10.1378 70.8533 10.4358C70.1203 10.7337 69.4771 11.1583 68.9236 11.7095C68.3701 12.2458 67.9363 12.879 67.6221 13.6089C67.3229 14.3389 67.1733 15.1359 67.1733 16C67.1733 16.8641 67.3229 17.6611 67.6221 18.3911C67.9363 19.121 68.3701 19.7616 68.9236 20.3128C69.4771 20.8492 70.1203 21.2663 70.8533 21.5642C71.6013 21.8622 72.4166 22.0112 73.2992 22.0112Z" fill="#F5F5F5"></path>
  <path d="M48 23.8202V8.1777H49.84L60.2293 21.0269H59.2644V8.1777H61.5083V23.8202H59.6683L49.279 10.971H50.2439V23.8202H48Z" fill="#F5F5F5"></path>
  <defs>
    <linearGradient id="paint0_linear_290_359" x1="0" y1="0" x2="40.7613" y2="30.999" gradientUnits="userSpaceOnUse">
      <stop stop-color="#00FFD3"></stop>
      <stop offset="0.390116" stop-color="#00F6FF"></stop>
      <stop offset="0.92761" stop-color="#B896FF"></stop>
    </linearGradient>
    <linearGradient id="paint1_linear_290_359" x1="0" y1="0" x2="40.7613" y2="30.999" gradientUnits="userSpaceOnUse">
      <stop stop-color="#00FFD3"></stop>
      <stop offset="0.390116" stop-color="#00F6FF"></stop>
      <stop offset="0.92761" stop-color="#B896FF"></stop>
    </linearGradient>
    <linearGradient id="paint2_linear_290_359" x1="0" y1="0" x2="40.7613" y2="30.999" gradientUnits="userSpaceOnUse">
      <stop stop-color="#00FFD3"></stop>
      <stop offset="0.390116" stop-color="#00F6FF"></stop>
      <stop offset="0.92761" stop-color="#B896FF"></stop>
    </linearGradient>
  </defs>
</svg>
